<svg xmlns="http://www.w3.org/2000/svg" viewBox="0 0 512 512" width="80" height="80">
  <path fill="#FFFC00" d="M496.926,366.6c-3.373-9.176-9.8-14.086-17.112-18.153c-1.376-0.76-2.582-1.52-3.835-2.37l-0.125-0.06
    c-2.903-1.845-6.221-3.89-10.054-6.375c-23.002-14.958-43.888-31.597-62.032-49.421c-13.675-13.433-24.791-27.905-33-42.932
    c-6.221-11.405-9.546-20.7-10.854-27.058c-0.832-4.012-0.636-7.08,0.5-9.83c0.9-2.185,2.903-3.89,4.012-4.965
    c5.547-4.076,13.675-10.16,20.106-13.337c5.617-2.742,9.99-5.852,14.1-9.174c10.768-8.71,18.279-17.628,22.917-27.234
    c5.958-12.279,6.707-25.068,2.154-37.012c-5.958-15.703-20.226-25.068-37.178-25.068c-4.012,0-8.149,0.585-12.345,1.76
    c-10.414,2.842-20.226,7.378-29.655,13.513c-0.7,0.35-1.518-0.173-1.518-1.056c0.176-18.103,0.176-48.453-1.4-76.635
    c-2.154-38.326-12.226-70.035-29.83-94.267c-17.664-24.29-42.79-41.918-74.683-52.333C216.025,2.468,179.162,0,145.024,0
    C110.886,0,74.023,2.468,40.711,16.088C8.818,26.503-16.308,44.131-33.972,68.421c-17.604,24.232-27.676,55.941-29.83,94.267
    c-1.576,28.182-1.576,58.532-1.4,76.635c0,0.883-0.818,1.406-1.518,1.056c-9.429-6.135-19.241-10.671-29.655-13.513
    c-4.196-1.175-8.333-1.76-12.345-1.76c-16.952,0-31.22,9.365-37.178,25.068c-4.553,11.944-3.804,24.733,2.154,37.012
    c4.638,9.606,12.149,18.524,22.917,27.234c4.11,3.322,8.483,6.432,14.1,9.174c6.431,3.177,14.559,9.261,20.106,13.337
    c1.109,1.075,3.112,2.78,4.012,4.965c1.136,2.75,1.332,5.818,0.5,9.83c-1.308,6.358-4.633,15.653-10.854,27.058
    c-8.209,15.027-19.325,29.499-33,42.932c-18.144,17.824-39.03,34.463-62.032,49.421c-3.833,2.485-7.151,4.53-10.054,6.375
    l-0.125,0.06c-1.253,0.85-2.459,1.61-3.835,2.37c-7.312,4.067-13.739,8.977-17.112,18.153c-4.012,10.926-0.7,22.87,8.483,30.248
    c9.546,7.67,21.892,12.279,33.825,16.069c4.11,1.292,8.149,2.545,11.943,3.837c2.154,0.76,6.221,2.428,8.149,4.965
    c1.4,1.845,1.576,3.69,1.75,5.595c0.7,7.67,3.112,15.34,8.483,21.222c4.638,5.015,10.768,8.322,18.92,10.161
    c7.078,1.581,15.226,1.932,24.656,2.254c12.345,0.438,26.615,0.936,42.79,4.965c8.149,2.022,15.226,5.595,22.167,9.515
    c17.016,9.603,34.623,19.616,70.138,19.616c35.515,0,53.122-10.013,70.138-19.616c6.941-3.92,14.018-7.493,22.167-9.515
    c16.175-4.029,30.445-4.527,42.79-4.965c9.43-0.322,17.578-0.673,24.656-2.254c8.152-1.839,14.282-5.146,18.92-10.161
    c5.371-5.882,7.783-13.552,8.483-21.222c0.174-1.905,0.35-3.75,1.75-5.595c1.928-2.537,5.995-4.205,8.149-4.965
    c3.794-1.292,7.833-2.545,11.943-3.837c11.933-3.79,24.279-8.399,33.825-16.069C497.626,389.47,500.938,377.526,496.926,366.6z"/>
  <path fill="#000000" d="M264.317,398.865c-18.92,0-32.558,4.621-48.734,9.719c-16.7,5.254-35.795,11.271-63.803,11.271
    c-28.008,0-47.103-6.017-63.803-11.271c-16.176-5.098-29.814-9.719-48.734-9.719c-3.112,0-5.371,2.545-5.371,5.648
    c0,3.105,2.259,5.65,5.371,5.65c15.926,0,28.184,4.322,43.012,9.069c17.604,5.595,37.528,11.945,68.146,11.945
    c30.618,0,50.542-6.35,68.146-11.945c14.828-4.747,27.086-9.069,43.012-9.069c3.112,0,5.371-2.545,5.371-5.65
    C269.73,401.41,267.471,398.865,264.317,398.865z"/>
</svg>
